<?xml version="1.0" standalone="no"?>
<!DOCTYPE svg PUBLIC "-//W3C//DTD SVG 20010904//EN"
 "http://www.w3.org/TR/2001/REC-SVG-20010904/DTD/svg10.dtd">
<svg version="1.0" xmlns="http://www.w3.org/2000/svg"
 width="1280.000000pt" height="800.000000pt" viewBox="0 0 1280.000000 800.000000"
 preserveAspectRatio="xMidYMid meet">
<metadata>
Created by potrace 1.16, written by Peter Selinger 2001-2019
</metadata>
<g transform="translate(0.000000,800.000000) scale(0.100000,-0.100000)"
fill="#000000" stroke="none">
<path d="M11535 7755 c-33 -32 -35 -100 -4 -139 19 -24 27 -27 72 -24 62 4 90
34 90 99 0 34 -6 47 -27 66 -38 32 -98 32 -131 -2z m108 -8 c10 -6 20 -29 24
-49 8 -53 -16 -88 -60 -88 -52 0 -72 21 -72 75 0 35 5 50 19 61 24 17 67 18
89 1z"/>
<path d="M11967 7733 c-4 -3 -7 -51 -7 -105 0 -80 3 -98 15 -98 10 0 15 10 15
33 0 31 1 32 42 32 41 0 43 2 52 36 5 20 6 48 2 63 -8 34 -50 55 -75 39 -12
-7 -22 -8 -28 -2 -5 5 -12 6 -16 2z"/>
<path d="M4190 6465 c0 -32 -2 -34 -19 -23 -51 31 -99 -45 -71 -112 12 -28 15
-30 66 -29 l54 2 0 98 c0 81 -3 99 -15 99 -10 0 -15 -11 -15 -35z"/>
<path d="M4340 6464 c0 -31 -2 -35 -15 -24 -46 38 -103 -44 -74 -106 13 -26
20 -29 67 -31 l52 -1 0 99 c0 81 -3 99 -15 99 -11 0 -15 -11 -15 -36z"/>
<path d="M7660 6465 c0 -32 -2 -34 -19 -23 -51 31 -99 -45 -71 -112 12 -28 15
-30 66 -29 l54 2 0 98 c0 81 -3 99 -15 99 -10 0 -15 -11 -15 -35z"/>
<path d="M7810 6464 c0 -31 -2 -35 -15 -24 -46 38 -103 -44 -74 -106 13 -26
19 -29 67 -30 l52 -1 0 99 c0 80 -3 98 -15 98 -11 0 -15 -11 -15 -36z"/>
<path d="M10460 6464 c0 -31 -2 -35 -15 -24 -26 21 -63 4 -74 -35 -19 -71 4
-106 70 -103 l49 2 0 98 c0 80 -3 98 -15 98 -11 0 -15 -11 -15 -36z"/>
<path d="M2640 6395 c0 -53 4 -95 9 -95 6 0 11 17 13 38 3 33 6 37 33 40 26 2
33 -3 53 -38 12 -22 29 -40 38 -40 16 0 11 15 -19 55 -14 18 -13 22 9 42 29
27 30 47 4 73 -16 16 -33 20 -80 20 l-60 0 0 -95z"/>
<path d="M6230 6395 c0 -78 3 -95 15 -95 11 0 15 11 15 40 0 37 2 40 28 40 21
0 33 -9 52 -40 14 -22 30 -40 37 -40 18 0 16 7 -8 42 l-21 29 21 23 c49 52 12
96 -81 96 l-58 0 0 -95z"/>
<path d="M750 6345 c0 -87 3 -105 15 -105 10 0 15 10 15 33 0 32 2 33 30 29
53 -8 77 36 58 104 -10 39 -48 55 -75 33 -13 -11 -17 -11 -20 -1 -3 6 -9 12
-14 12 -5 0 -9 -47 -9 -105z"/>
<path d="M10182 6434 c-16 -11 -22 -25 -22 -55 0 -61 14 -79 59 -79 48 0 66
20 66 72 0 64 -54 97 -103 62z"/>
<path d="M11681 5713 c-1 -19 -7 -23 -33 -24 -18 -1 -44 -4 -58 -8 -23 -7 -24
-8 -6 -18 20 -11 75 20 -778 -447 -247 -135 -453 -246 -458 -246 -16 0 -7 -36
88 -334 52 -165 113 -357 135 -425 30 -96 36 -127 27 -133 -26 -16 -217 -118
-223 -118 -4 0 37 57 90 126 53 69 95 127 93 130 -3 2 -53 -59 -112 -137 -82
-106 -107 -146 -103 -162 3 -12 82 -205 177 -430 l171 -407 -171 -457 c-94
-252 -176 -465 -180 -474 -5 -9 -7 -19 -5 -21 3 -3 152 46 332 109 179 62 327
112 329 110 4 -4 626 -1490 631 -1509 4 -12 0 -18 -11 -18 -25 0 -19 -15 22
-51 20 -18 40 -44 43 -58 5 -18 7 -9 8 29 1 30 8 73 16 95 8 22 15 41 15 42 0
1 -12 -9 -26 -22 -15 -14 -30 -25 -33 -25 -9 0 -506 1569 -499 1575 4 4 428
155 435 155 2 0 3 -10 3 -22 0 -20 4 -18 39 16 l39 39 5 -29 c3 -16 4 -4 2 26
-3 51 -22 140 -24 113 -4 -44 -45 14 -181 253 l-151 266 118 130 c65 72 131
146 147 165 l29 35 13 -23 c12 -23 12 -22 23 16 6 22 11 47 12 55 1 8 5 4 9
-10 6 -20 8 -14 8 25 0 32 -2 43 -7 31 -6 -16 -10 -10 -21 27 -12 45 -30 64
-30 32 0 -8 -3 -15 -8 -15 -4 0 -72 65 -151 144 l-144 144 108 204 c223 421
205 391 225 373 17 -16 19 -13 25 60 4 42 5 79 1 82 -3 4 -6 -3 -6 -15 0 -23
-14 -30 -25 -12 -3 5 -20 19 -37 31 l-31 23 5 -22 c7 -27 10 -27 -137 7 -84
20 -120 33 -119 42 3 28 305 822 318 835 12 11 15 11 21 -4 14 -36 23 12 15
83 -4 39 -8 60 -9 48z m-75 -98 c-1 -9 -135 -189 -297 -402 -162 -212 -296
-389 -299 -393 -5 -8 -640 131 -640 140 0 7 1213 670 1227 670 6 0 10 -7 9
-15z m34 -8 c0 -4 -321 -861 -323 -864 -5 -4 -285 63 -288 70 -5 8 592 796
604 797 4 0 7 -2 7 -3z m-945 -738 c154 -34 283 -65 288 -68 7 -7 -188 -271
-201 -271 -4 0 -99 93 -212 206 -145 146 -198 205 -180 201 14 -3 151 -33 305
-68z m30 -423 c-34 -45 -51 -62 -57 -53 -4 6 -67 117 -140 244 -72 128 -134
231 -136 228 -2 -2 57 -112 132 -244 75 -132 136 -245 136 -251 0 -21 -84
-120 -91 -107 -6 10 -123 377 -179 560 -11 32 -14 54 -7 50 7 -4 8 0 3 13 -4
10 82 -69 190 -178 l197 -196 -48 -66z m448 315 c71 -16 131 -32 133 -34 3 -2
-24 -78 -58 -168 l-63 -164 -88 -49 -89 -49 -108 108 -108 108 61 81 c132 176
157 204 175 200 9 -2 75 -17 145 -33z m360 -81 c54 -13 77 -29 40 -31 -15 0
-14 -3 5 -16 22 -16 19 -18 -170 -119 -106 -57 -194 -101 -197 -99 -2 3 22 74
54 158 l58 154 76 -17 c42 -9 102 -23 134 -30z m64 -86 c-3 -4 0 -13 8 -21 13
-12 12 -20 -10 -62 -52 -104 -267 -506 -274 -513 -4 -4 -51 36 -104 90 l-98
98 38 100 39 99 194 107 c175 96 226 121 207 102z m-613 -305 c-5 -9 -195
-111 -198 -107 -2 2 -86 150 -102 179 -2 4 19 37 47 74 l51 67 104 -103 c56
-56 101 -106 98 -110z m-260 -21 c26 -45 45 -87 43 -92 -3 -6 -36 -28 -75 -49
l-70 -37 -22 65 c-12 36 -19 73 -16 81 8 21 79 113 87 114 4 0 28 -37 53 -82z
m328 -35 c26 -26 48 -52 48 -57 0 -13 -111 -309 -119 -319 -7 -7 -181 291
-181 309 0 7 184 112 200 113 2 1 26 -20 52 -46z m198 -377 c-47 -88 -66 -116
-79 -112 -9 2 -48 12 -87 21 -110 26 -111 28 -34 235 l64 171 99 -99 99 -99
-62 -117z m-372 139 c64 -111 92 -170 88 -183 -6 -18 -12 -18 -138 12 l-133
32 -32 104 c-19 58 -31 110 -29 116 3 9 132 83 146 84 3 0 47 -74 98 -165z
m-230 -27 c17 -56 30 -103 28 -105 -1 -2 -74 14 -160 34 l-157 38 123 67 c68
37 126 67 129 68 3 0 20 -46 37 -102z m809 -140 c127 -127 150 -159 119 -171
-10 -4 -317 61 -363 78 -8 3 7 41 45 114 31 61 59 111 62 111 3 0 64 -60 137
-132z m-917 52 c74 -17 137 -33 142 -36 4 -3 24 -57 44 -122 55 -174 72 -232
70 -232 0 0 -98 97 -216 216 -118 119 -206 213 -195 210 11 -3 81 -19 155 -36z
m275 -441 c5 -14 -87 -279 -112 -323 -6 -11 -46 74 -130 277 -67 161 -143 342
-168 402 l-46 110 226 -225 c124 -124 228 -232 230 -241z m7 375 c62 -14 117
-30 121 -34 9 -8 -103 -320 -115 -320 -4 0 -30 73 -59 163 -64 200 -69 217
-63 217 2 0 54 -12 116 -26z m175 -42 c7 -4 35 -47 62 -95 l49 -88 -70 -132
c-39 -73 -71 -133 -72 -134 -1 -1 -30 26 -63 60 l-62 62 55 145 c78 209 73
200 101 182z m395 -92 c210 -49 205 -47 190 -62 -21 -21 -13 -27 20 -17 48 13
48 10 3 -11 -22 -10 -32 -19 -23 -19 9 -1 19 -5 23 -11 8 -13 -275 -324 -286
-313 -4 4 -51 84 -103 176 l-95 168 35 64 c20 36 42 65 50 65 7 0 91 -18 186
-40z m-183 -268 c49 -86 93 -165 96 -174 5 -12 -11 -37 -51 -83 l-58 -66 -108
108 c-59 59 -108 112 -108 117 0 10 129 256 135 256 2 0 44 -71 94 -158z
m-343 -131 l28 -94 -64 -123 -65 -124 -27 58 c-14 31 -27 66 -27 77 -2 30 113
326 120 312 3 -7 19 -54 35 -106z m213 -95 l104 -105 -26 -33 c-14 -18 -55
-64 -89 -102 l-63 -68 -49 154 -48 155 26 51 c15 29 30 52 34 52 4 0 54 -47
111 -104z m397 -244 c83 -147 149 -269 147 -272 -5 -5 -413 402 -413 413 0 8
102 125 110 126 3 0 73 -120 156 -267z m-528 80 c23 -75 42 -143 42 -149 0
-12 -115 -145 -129 -151 -4 -1 -26 44 -50 101 l-42 103 62 117 c34 64 65 117
68 117 3 0 25 -62 49 -138z m649 -366 c-1 -6 -9 -14 -17 -17 -9 -4 1 -12 30
-22 l45 -17 -44 5 c-39 5 -43 4 -31 -10 7 -8 10 -18 7 -21 -9 -10 -430 -155
-434 -150 -3 3 -36 102 -74 222 -67 210 -68 218 -52 238 10 11 52 58 92 104
l75 83 202 -202 c112 -112 202 -207 201 -213z m-868 336 c12 -30 21 -61 19
-70 -3 -17 -347 -672 -353 -672 -1 0 66 182 149 404 83 223 154 402 157 398 3
-4 16 -31 28 -60z m74 -179 c20 -49 37 -93 39 -100 3 -10 -447 -523 -459 -523
-2 0 28 60 66 133 39 72 124 232 188 354 65 123 121 223 124 223 3 0 22 -39
42 -87z m267 -178 c35 -110 65 -205 67 -210 4 -11 -125 -61 -134 -51 -3 3 -36
78 -74 166 l-67 161 66 74 c37 41 69 71 73 67 4 -4 35 -97 69 -207z m-83 -272
c-7 -6 -610 -214 -613 -211 -1 2 106 124 238 271 l241 268 69 -162 c37 -89 67
-164 65 -166z m390 -695 c127 -403 230 -734 229 -736 -2 -1 -137 318 -300 709
-164 391 -296 712 -294 713 6 6 113 45 123 45 6 1 114 -329 242 -731z"/>
<path d="M2620 5511 c5 -11 10 -22 10 -25 0 -3 -247 -6 -549 -6 -515 0 -550 1
-554 18 -3 9 -5 1 -6 -20 0 -20 3 -38 7 -40 5 -1 59 -170 120 -374 61 -204
114 -378 117 -386 8 -21 -225 -225 -236 -206 -6 8 -9 -3 -9 -30 0 -24 4 -41 8
-38 5 3 61 -123 125 -279 l116 -284 -117 -205 c-70 -123 -120 -200 -124 -193
-4 7 -8 -8 -8 -32 0 -38 2 -42 13 -28 11 16 33 17 215 15 l204 -3 33 -80 c19
-44 34 -89 34 -100 1 -18 -103 -372 -111 -380 -2 -2 -84 122 -182 276 -98 154
-181 278 -183 275 -2 -2 73 -125 168 -272 94 -148 176 -278 181 -290 7 -15
-32 -157 -173 -625 -100 -332 -186 -605 -191 -607 -4 -2 -8 -20 -7 -40 0 -21
3 -31 6 -24 4 9 124 12 554 12 547 0 550 0 539 -20 -14 -26 -9 -25 49 4 45 23
48 27 58 81 9 52 9 56 -8 52 -10 -3 -22 0 -27 7 -6 6 -87 267 -181 579 l-171
568 167 261 c147 230 168 259 179 243 14 -19 16 -15 28 65 7 47 -8 151 -18
128 -7 -16 -9 -16 -25 0 -22 21 -191 317 -191 334 0 12 198 506 208 518 2 3
10 -4 18 -14 24 -34 18 78 -8 141 -21 52 -38 68 -38 38 0 -8 -2 -15 -5 -15
-14 0 -175 146 -175 159 0 10 154 529 201 678 10 31 21 35 48 19 11 -7 13 -5
9 6 -4 9 -9 36 -13 60 -6 42 -10 46 -61 71 -49 24 -54 25 -44 8z m-1 -57 c-10
-13 -10 -17 0 -23 20 -13 23 -10 -431 -404 l-66 -58 -287 250 -286 251 542 0
c492 0 540 -1 528 -16z m-764 -269 c138 -119 251 -220 252 -223 2 -8 -177
-165 -182 -160 -4 4 -340 589 -355 618 l-13 25 24 -21 c13 -12 137 -119 274
-239z m-112 -92 c92 -161 167 -296 167 -301 0 -5 -29 -34 -65 -66 -43 -38 -67
-53 -70 -44 -4 11 -194 644 -211 703 -12 41 16 -5 179 -292z m747 5 c-89 -156
-165 -286 -168 -290 -7 -7 -174 132 -180 150 -5 15 491 443 502 432 5 -5 -56
-122 -154 -292z m175 235 c-8 -27 -56 -186 -107 -355 -105 -348 -82 -319 -182
-231 l-49 43 169 295 c92 162 171 295 176 295 4 0 1 -21 -7 -47z m-447 -464
c84 -74 91 -82 81 -102 -7 -12 -48 -84 -91 -160 -44 -77 -78 -141 -75 -143 2
-3 46 68 97 156 l92 160 69 -62 c46 -40 68 -67 64 -77 -13 -43 -55 -185 -55
-188 0 -2 -60 -3 -133 -3 -115 0 -136 2 -149 18 -14 16 -178 300 -181 314 -2
7 173 167 183 167 3 1 47 -35 98 -80z m-203 -251 c48 -84 89 -156 92 -160 2
-5 -56 -8 -129 -8 l-134 0 -31 105 -30 104 66 56 c36 30 69 55 72 55 4 0 47
-69 94 -152z m624 -120 c1 -5 -6 -8 -14 -8 -18 0 -19 -12 -3 -28 9 -9 -13 -12
-101 -12 -96 0 -112 2 -107 15 3 8 17 53 31 100 l26 85 84 -72 c46 -40 84 -76
84 -80z m-835 51 c15 -50 25 -93 23 -95 -2 -3 -66 -3 -140 -2 l-137 3 107 93
c59 50 109 92 113 92 4 0 19 -41 34 -91z m80 -269 c27 -88 46 -163 43 -166 -4
-5 -276 225 -357 302 l-25 24 146 0 145 0 48 -160z m223 153 c-63 -115 -161
-283 -166 -283 -3 0 -24 60 -45 133 -22 72 -42 138 -44 145 -3 9 27 12 128 12
72 0 129 -3 127 -7z m283 -1 c0 -7 -63 -222 -83 -286 -2 -5 -41 57 -87 138
-46 80 -86 144 -88 141 -2 -2 34 -71 82 -154 71 -124 84 -154 77 -173 -8 -20
-123 -131 -159 -152 -8 -5 -32 8 -65 37 -96 82 -117 105 -117 127 0 20 114
233 162 303 l19 27 130 0 c71 0 129 -4 129 -8z m232 -4 c-17 -17 -15 -39 3
-32 8 4 15 2 15 -2 0 -12 -306 -276 -317 -274 -4 1 -7 9 -5 18 5 25 84 286 89
295 2 4 54 7 116 7 86 0 108 -3 99 -12z m-890 -169 c95 -83 175 -155 176 -160
4 -9 -90 -181 -121 -222 -11 -16 -26 16 -122 249 -61 147 -111 271 -113 276
-2 4 -1 8 1 8 3 0 83 -68 179 -151z m928 88 c0 -27 -186 -483 -195 -480 -13 3
-135 225 -129 234 10 17 305 269 314 269 6 0 10 -10 10 -23z m-680 -382 c16
-55 30 -107 30 -115 0 -8 -36 -46 -80 -84 -44 -38 -78 -71 -76 -74 3 -2 39 26
81 63 44 40 79 64 84 59 5 -5 28 -72 51 -148 42 -140 45 -167 21 -229 -10 -27
-13 -28 -73 -25 l-61 3 -85 205 c-46 113 -85 210 -85 216 0 6 31 65 69 132 54
96 72 119 81 109 7 -7 26 -57 43 -112z m409 1 l71 -124 -27 -71 c-15 -39 -31
-71 -35 -71 -10 0 -168 139 -168 148 0 32 74 242 85 242 1 0 35 -56 74 -124z
m-188 -170 c-42 -140 -78 -253 -79 -251 -2 2 -24 68 -48 147 l-44 143 23 21
c26 26 219 194 222 194 1 0 -32 -114 -74 -254z m189 -120 c0 -13 -91 -238
-103 -254 -7 -9 -30 -12 -70 -10 l-60 3 -14 50 c-15 49 -14 51 32 207 l48 157
83 -71 c46 -39 84 -76 84 -82z m-561 17 c1 -6 -52 -58 -116 -115 -131 -114
-160 -138 -151 -123 3 6 52 91 109 189 l103 180 27 -60 c15 -32 28 -64 28 -71z
m739 -39 c52 -91 92 -168 89 -171 -8 -7 -28 8 -146 111 -56 50 -100 95 -97
100 33 83 52 126 56 126 3 0 47 -75 98 -166z m-673 -117 c26 -65 45 -120 43
-123 -3 -2 -92 -3 -199 -2 l-193 3 144 127 c80 70 148 124 151 120 3 -4 27
-60 54 -125z m622 37 c101 -89 142 -133 110 -121 -11 4 -17 1 -17 -8 0 -8 5
-15 11 -15 5 0 7 -4 4 -10 -6 -11 -307 -15 -317 -4 -9 8 94 254 104 248 5 -3
52 -44 105 -90z m-342 -257 c14 -46 25 -89 25 -97 0 -26 -73 -201 -81 -193 -4
5 -24 48 -44 98 l-37 90 27 92 c27 89 29 93 56 93 27 0 30 -5 54 -83z m446 64
c-11 -19 -2 -33 27 -42 8 -3 -44 -93 -144 -249 -86 -135 -159 -248 -163 -253
-4 -4 -33 80 -65 186 l-58 193 37 92 37 92 169 0 c163 0 169 -1 160 -19z
m-524 -341 l17 -47 -60 -146 c-32 -81 -61 -147 -64 -147 -7 1 -70 106 -70 118
0 6 11 46 24 89 14 43 39 125 56 183 l32 105 24 -54 c14 -30 32 -76 41 -101z
m173 -37 c29 -98 53 -181 54 -184 2 -14 -67 -120 -74 -112 -4 4 -33 71 -64
148 l-58 139 37 93 c20 51 40 93 44 93 5 0 32 -80 61 -177z m-85 -177 l58
-145 -55 -88 c-31 -48 -60 -89 -65 -90 -4 -2 -34 38 -66 88 l-58 90 52 127
c52 128 67 162 73 162 2 0 29 -65 61 -144z m-236 -86 c17 -28 31 -56 31 -62 0
-14 -382 -949 -386 -945 -2 2 289 980 311 1045 7 19 11 15 44 -38z m548 -488
c89 -295 161 -538 159 -539 -1 -1 -91 216 -200 482 l-198 484 33 55 c19 31 36
56 39 56 3 0 78 -242 167 -538z m-451 336 c25 -40 51 -82 56 -93 8 -18 -31
-85 -257 -439 -146 -230 -264 -420 -262 -422 2 -3 123 182 268 410 145 229
267 416 270 416 3 0 122 -182 264 -405 142 -223 260 -403 262 -401 3 2 -113
189 -257 414 l-261 411 57 90 c32 50 60 91 63 91 3 0 93 -215 200 -478 107
-262 201 -492 208 -510 8 -19 10 -32 6 -29 -4 3 -14 -1 -21 -9 -7 -8 -9 -14
-5 -14 4 0 0 -5 -10 -11 -13 -8 -15 -15 -7 -28 5 -10 6 -21 3 -25 -12 -11
-1073 -7 -1073 5 0 6 6 20 12 32 12 20 15 34 21 94 1 11 5 19 8 17 3 -2 89
198 189 444 101 246 189 462 197 480 7 17 15 32 18 32 2 0 25 -32 51 -72z"/>
<path d="M3415 5433 c28 -27 251 -247 498 -488 246 -240 447 -441 447 -446 0
-5 -7 -9 -15 -9 -13 0 -14 -4 -5 -20 11 -20 8 -20 -480 -20 -269 0 -490 -2
-490 -5 0 -3 11 -22 24 -43 52 -81 356 -601 356 -609 0 -5 -85 -94 -190 -198
-104 -104 -189 -189 -187 -190 1 -1 121 -86 267 -190 146 -104 266 -189 267
-190 3 -1 -513 -1414 -532 -1457 -4 -10 -3 -18 2 -18 5 0 231 232 503 515 271
283 496 515 501 515 5 0 9 -8 9 -17 0 -26 15 -4 32 47 10 29 13 66 10 104 -4
53 -6 57 -18 41 -9 -12 -18 -15 -23 -9 -11 11 -328 546 -342 577 -8 18 22 108
166 502 221 605 193 539 217 518 19 -17 19 -16 13 37 -4 30 -16 82 -27 114
-19 52 -22 56 -30 36 -9 -25 60 -90 -651 605 -191 187 -353 342 -360 344 -7 2
11 -19 38 -46z m935 -1002 c0 -6 -4 -13 -10 -16 -14 -9 -12 -23 3 -21 6 0 14
-2 17 -5 3 -3 -129 -137 -294 -298 -269 -264 -299 -291 -310 -274 -16 22 -338
569 -355 601 l-12 22 481 0 c293 0 480 -4 480 -9z m40 -82 c0 -16 -350 -972
-359 -981 -4 -4 -64 88 -133 205 l-126 212 291 287 c263 259 327 313 327 277z
m-494 -794 c68 -116 124 -214 124 -220 0 -5 -23 -74 -52 -153 -32 -90 -56
-141 -63 -138 -9 3 -492 344 -515 363 -7 6 363 362 374 360 4 -2 64 -97 132
-212z m308 -521 c159 -270 185 -323 151 -310 -34 13 -425 299 -425 311 0 7 18
61 40 121 54 144 62 165 65 162 2 -2 78 -130 169 -284z m-69 -172 c244 -174
232 -163 203 -178 -21 -12 -19 -13 29 -20 60 -8 61 -15 3 -34 -38 -13 -40 -14
-21 -25 20 -10 -17 -51 -460 -513 -265 -277 -483 -501 -485 -499 -3 3 480
1336 506 1395 12 28 -9 40 225 -126z"/>
<path d="M9595 4980 c6 -20 2 -20 -514 -20 -287 0 -521 -3 -521 -7 0 -5 66
-173 147 -375 l147 -368 -95 -87 c-204 -190 -205 -191 -192 -210 75 -115 419
-670 421 -680 2 -8 -93 -257 -212 -553 -119 -297 -216 -544 -216 -550 0 -7
166 -10 521 -10 518 0 520 0 514 -20 -6 -20 -6 -20 42 2 26 12 49 23 50 23 1
1 5 27 9 58 7 55 6 56 -16 52 -13 -3 -26 -9 -29 -13 -7 -10 -505 780 -509 806
-1 9 22 55 52 102 l55 85 19 -45 c10 -25 99 -246 197 -492 98 -246 181 -446
183 -443 2 2 -85 227 -193 500 l-197 495 189 302 c103 166 191 306 195 312 5
7 12 4 22 -9 13 -18 15 -15 21 38 6 48 3 66 -16 115 -18 43 -25 52 -27 35 -2
-13 -6 -23 -10 -23 -7 0 -156 131 -211 185 l-24 23 133 332 c128 320 133 330
151 314 18 -16 19 -16 19 13 0 72 -10 92 -58 113 -55 25 -55 25 -47 0z m-10
-40 c-11 -5 -15 -9 -9 -9 43 -3 9 -43 -212 -248 -130 -120 -239 -218 -244
-218 -4 0 -119 101 -255 224 -135 123 -256 232 -268 242 -21 18 -7 18 493 18
296 0 507 -4 495 -9z m-750 -240 c94 -84 194 -175 223 -202 l52 -49 -77 -73
c-43 -40 -99 -91 -124 -114 l-47 -42 -137 342 c-76 189 -140 350 -143 358 -3
8 15 -3 39 -26 24 -22 121 -110 214 -194z m782 193 c-3 -5 1 -14 9 -21 10 -10
14 -10 14 -1 0 7 2 10 5 7 6 -6 -241 -636 -255 -651 -4 -4 -63 42 -131 104
-68 62 -125 113 -127 115 -3 2 480 454 486 454 2 0 1 -3 -1 -7z m-366 -570
c71 -64 129 -119 129 -122 0 -3 -23 -63 -51 -133 l-51 -128 -152 0 -153 0 -52
133 -53 132 124 117 c67 65 124 118 126 118 2 0 62 -53 133 -117z m-341 -253
c28 -68 50 -125 50 -127 0 -2 -84 -3 -187 -3 l-188 1 135 128 c74 71 136 128
138 127 1 -2 25 -58 52 -126z m618 1 c89 -80 92 -85 70 -94 -14 -6 -18 -11
-10 -14 6 -3 12 -9 12 -14 0 -5 -67 -9 -154 -9 l-154 0 40 103 c22 56 44 113
49 126 11 28 -2 36 147 -98z m-561 -153 c5 -7 42 -94 81 -192 l72 -180 -58
-148 c-31 -81 -59 -148 -62 -148 -6 0 -420 664 -420 673 0 4 85 7 189 7 139 0
191 -3 198 -12z m299 -5 c-4 -10 -37 -93 -73 -186 l-67 -167 -73 182 c-40 100
-73 184 -73 185 0 2 66 3 146 3 135 0 146 -1 140 -17z m330 -9 c-6 -21 -3 -27
14 -31 14 -4 20 -12 17 -22 -6 -21 -363 -592 -372 -594 -4 -1 -33 63 -65 142
l-57 144 64 161 c36 89 71 176 78 194 l14 32 157 0 156 0 -6 -26z m-406 -536
l53 -137 -43 -72 c-77 -127 -68 -126 -134 -20 l-58 91 58 145 c32 80 61 142
64 138 3 -5 30 -70 60 -145z m139 -672 c299 -477 300 -478 280 -499 -11 -12
-17 -28 -13 -39 5 -17 -18 -18 -505 -18 -281 0 -511 2 -511 4 0 3 122 199 271
436 149 238 269 434 266 436 -2 2 -116 -174 -252 -391 -136 -218 -249 -394
-251 -392 -2 2 80 212 182 468 103 255 191 475 196 489 12 31 -33 96 337 -494z"/>
<path d="M7800 4954 c0 -4 8 -12 17 -19 15 -11 -48 -46 -457 -250 -261 -130
-476 -238 -477 -239 -1 -1 85 -197 191 -436 106 -239 195 -442 198 -450 3 -9
-81 -210 -189 -450 -107 -239 -195 -441 -196 -448 -1 -7 192 -112 470 -254
447 -229 471 -243 456 -260 -15 -17 -13 -18 39 -18 54 0 56 1 62 31 9 45 7 79
-3 79 -5 0 -12 -8 -16 -17 -6 -16 -8 -15 -20 7 -52 99 -465 1055 -461 1066 3
7 105 138 227 290 208 259 222 276 234 255 11 -21 12 -18 24 33 12 56 12 56
-21 102 -28 40 -33 43 -36 25 -2 -11 -5 -21 -8 -21 -2 0 -68 32 -145 71 -86
43 -139 75 -136 82 3 7 69 156 147 332 78 176 151 340 161 364 19 43 20 43 39
26 19 -18 20 -17 20 6 0 13 -3 41 -6 62 l-7 37 -53 0 c-30 0 -54 -3 -54 -6z
m38 -61 c-2 -12 3 -17 14 -15 15 2 16 -1 9 -20 -17 -44 -320 -720 -324 -725
-6 -5 -627 305 -627 313 0 4 915 461 928 464 2 0 2 -8 0 -17z m-310 -778 c6
-5 -238 -540 -245 -536 -7 4 -122 260 -328 728 l-53 122 311 -155 c172 -86
313 -157 315 -159z m285 -167 c-15 -17 -13 -18 38 -18 l54 -1 -48 -21 c-45
-20 -47 -22 -28 -32 19 -11 6 -29 -199 -286 -121 -151 -223 -276 -228 -278 -9
-3 -108 227 -104 242 1 6 57 133 123 283 l121 272 144 -72 c135 -67 142 -72
127 -89z m-234 -1081 c160 -362 291 -660 291 -664 0 -3 -6 0 -14 6 -16 13 -32
-2 -21 -19 3 -5 3 -10 0 -10 -7 0 -630 317 -828 421 l-109 57 239 298 c239
299 258 324 250 324 -3 0 -103 -123 -222 -272 -120 -150 -224 -280 -232 -288
-8 -8 -4 9 10 40 121 277 341 769 343 767 1 -1 133 -298 293 -660z"/>
<path d="M11956 4744 c-9 -8 -16 -22 -16 -30 0 -18 27 -18 46 1 15 14 44 11
44 -6 0 -5 -23 -34 -51 -65 -27 -30 -48 -61 -46 -67 2 -8 29 -12 73 -12 55 0
69 3 69 15 0 11 -13 16 -44 18 l-45 3 42 39 c68 61 55 120 -27 120 -16 0 -37
-7 -45 -16z"/>
<path d="M6145 4470 c6 -20 -1 -20 -529 -20 -295 0 -536 -2 -536 -4 0 -3 124
-197 276 -433 152 -235 281 -437 286 -449 8 -17 -31 -84 -263 -445 -149 -233
-278 -431 -285 -440 -8 -8 -14 -19 -14 -22 0 -4 241 -7 535 -7 294 0 535 -3
535 -6 0 -3 -5 -14 -10 -25 -10 -17 -5 -16 45 8 l56 28 -7 50 c-8 59 -10 64
-27 42 -10 -15 -48 38 -275 392 l-263 410 263 410 c259 404 263 409 280 388
l18 -22 0 25 c0 14 3 41 6 61 6 35 5 36 -46 57 -50 21 -51 21 -45 2z m0 -47
c-12 -32 -10 -37 13 -41 14 -2 22 -9 19 -17 -3 -7 -120 -191 -260 -409 l-255
-396 -275 427 c-151 236 -277 434 -281 441 -6 9 101 12 519 12 498 0 527 -1
520 -17z m-221 -1292 c141 -219 256 -401 256 -405 0 -3 -10 -6 -22 -6 l-23 0
25 -21 c24 -20 24 -20 2 -9 -22 11 -23 10 -17 -9 l6 -21 -526 0 c-447 0 -525
2 -518 14 36 63 549 856 554 856 3 0 122 -179 263 -399z"/>
<path d="M8190 4020 c-12 -12 -18 -25 -15 -30 10 -15 33 -12 43 7 12 20 42 11
42 -13 0 -9 -20 -35 -45 -58 -27 -26 -45 -51 -45 -65 0 -21 3 -22 68 -19 52 2
67 6 67 18 0 11 -13 16 -44 18 l-45 3 42 39 c32 29 42 45 42 68 0 52 -70 72
-110 32z"/>
<path d="M9970 4020 c-11 -11 -20 -24 -20 -30 0 -16 32 -11 45 7 14 18 45 12
45 -10 0 -8 -20 -34 -45 -59 -25 -26 -45 -55 -45 -67 0 -21 4 -22 68 -19 52 2
67 6 67 18 0 11 -13 16 -44 18 l-45 3 42 39 c45 41 54 76 26 104 -22 22 -70
20 -94 -4z"/>
<path d="M11962 3714 c-43 -30 -17 -60 28 -32 15 9 22 10 31 1 15 -15 3 -33
-22 -33 -28 0 -25 -38 3 -42 13 -2 24 -11 26 -21 5 -24 -28 -35 -43 -14 -13
18 -55 24 -55 8 0 -17 35 -50 55 -52 46 -4 65 2 81 26 15 23 15 27 -1 51 -12
19 -14 29 -6 37 30 30 -5 87 -54 87 -11 0 -31 -7 -43 -16z"/>
<path d="M1152 3504 c-27 -19 -29 -44 -2 -44 11 0 20 5 20 11 0 14 42 7 48 -8
2 -7 -8 -17 -22 -23 -31 -11 -35 -40 -6 -40 25 0 37 -27 21 -43 -9 -9 -16 -9
-29 1 -30 21 -43 25 -54 14 -7 -7 -3 -17 11 -31 25 -25 82 -28 105 -5 20 20
21 58 1 74 -14 12 -14 15 0 30 20 22 19 36 -5 60 -24 24 -57 26 -88 4z"/>
<path d="M3002 3504 c-12 -8 -22 -22 -22 -30 0 -16 26 -19 35 -4 12 19 45 11
45 -10 0 -13 -7 -20 -20 -20 -29 0 -27 -38 3 -42 14 -2 22 -10 22 -23 0 -26
-33 -32 -49 -9 -8 11 -19 15 -31 11 -16 -7 -16 -9 -2 -30 19 -29 81 -36 108
-11 23 20 25 57 4 74 -12 10 -13 15 -1 32 18 26 9 57 -21 69 -33 12 -45 11
-71 -7z"/>
<path d="M4646 2744 c-36 -35 -33 -136 4 -166 29 -23 41 -23 74 3 23 18 26 28
26 78 0 69 -19 101 -60 101 -16 0 -36 -7 -44 -16z"/>
<path d="M4806 2700 c-52 -81 -52 -94 2 -98 28 -2 42 -8 42 -18 0 -8 9 -14 20
-14 11 0 20 6 20 14 0 24 28 26 43 3 19 -29 92 -31 113 -2 18 25 18 50 -1 69
-9 9 -11 17 -5 21 15 9 12 61 -4 74 -22 19 -86 9 -102 -14 -11 -17 -11 -25 0
-47 12 -23 12 -28 -3 -42 -33 -30 -41 -19 -41 49 0 61 -1 65 -22 65 -17 0 -33
-16 -62 -60z"/>
<path d="M6446 2745 c-20 -20 -30 -76 -22 -120 14 -75 98 -85 123 -15 15 42 8
108 -14 132 -20 22 -66 23 -87 3z"/>
<path d="M6610 2701 c-22 -33 -40 -69 -40 -80 0 -18 6 -21 40 -21 29 0 40 -4
40 -15 0 -8 9 -15 20 -15 11 0 20 6 20 14 0 24 28 26 43 3 17 -25 84 -30 111
-8 20 17 21 70 1 77 -12 5 -12 9 2 30 14 22 14 26 -1 49 -18 27 -61 34 -97 15
-21 -12 -26 -59 -9 -76 13 -13 -24 -49 -39 -39 -6 3 -11 33 -11 66 0 52 -2 59
-20 59 -12 0 -33 -21 -60 -59z"/>
<path d="M11970 2641 c-22 -33 -40 -69 -40 -80 0 -18 6 -21 45 -21 38 0 45 -3
45 -20 0 -25 28 -27 37 -2 4 9 14 23 22 30 14 11 14 13 -1 26 -13 10 -18 28
-18 70 0 53 -1 56 -25 56 -19 0 -34 -14 -65 -59z"/>
<path d="M7981 2177 c-54 -84 -54 -97 4 -97 38 0 45 -3 45 -20 0 -11 7 -20 15
-20 8 0 15 9 15 20 0 11 7 20 15 20 8 0 15 7 15 15 0 8 -7 15 -15 15 -12 0
-15 14 -15 65 0 57 -2 65 -19 65 -12 0 -33 -23 -60 -63z"/>
<path d="M8120 2220 c-16 -16 -20 -33 -20 -80 0 -47 4 -64 20 -80 49 -49 110
-4 110 80 0 84 -61 129 -110 80z"/>
<path d="M8272 2224 c-15 -10 -22 -25 -22 -49 0 -43 24 -68 62 -63 31 5 38
-11 13 -32 -12 -10 -19 -10 -27 -2 -14 14 -48 16 -48 4 0 -17 37 -42 63 -42
39 0 67 42 67 100 0 82 -53 123 -108 84z"/>
<path d="M8425 2215 c-19 -19 -25 -35 -25 -70 0 -71 22 -105 71 -105 57 0 82
84 34 116 -14 9 -32 13 -45 9 -24 -8 -28 16 -5 35 12 10 18 10 30 0 8 -6 22
-10 32 -8 16 3 16 5 -5 26 -29 29 -57 28 -87 -3z"/>
<path d="M9760 2178 c-52 -82 -52 -98 -1 -98 30 0 40 -4 44 -20 3 -11 12 -20
21 -20 9 0 16 8 16 20 0 11 7 20 15 20 8 0 15 7 15 15 0 8 -7 15 -15 15 -12 0
-15 14 -15 65 0 59 -2 65 -20 65 -14 0 -33 -19 -60 -62z"/>
<path d="M9900 2220 c-11 -11 -21 -32 -22 -47 -4 -88 16 -133 61 -133 45 0 66
32 66 100 0 43 -5 63 -19 79 -24 26 -60 27 -86 1z"/>
<path d="M10049 2222 c-14 -12 -22 -30 -22 -50 0 -44 20 -65 60 -60 36 4 44
-11 18 -32 -12 -10 -19 -10 -27 -2 -14 14 -48 16 -48 3 0 -19 32 -41 60 -41
42 0 70 40 70 100 0 84 -56 125 -111 82z"/>
<path d="M10205 2215 c-33 -32 -36 -124 -5 -155 43 -43 110 -14 110 48 0 37
-37 68 -70 57 -24 -8 -28 16 -5 35 12 10 19 10 27 2 17 -17 38 -15 38 3 0 16
-30 35 -55 35 -9 0 -27 -11 -40 -25z"/>
<path d="M969 1643 c-26 -30 -79 -119 -79 -131 0 -7 17 -12 45 -12 38 0 45 -3
45 -20 0 -13 7 -20 20 -20 13 0 20 7 20 20 0 11 5 20 10 20 6 0 10 7 10 15 0
8 -4 15 -10 15 -5 0 -10 28 -12 62 -3 68 -20 85 -49 51z"/>
<path d="M1067 1653 c-3 -4 -7 -30 -8 -58 -4 -53 -5 -53 55 -43 10 2 23 -5 29
-14 9 -14 8 -21 -6 -35 -14 -15 -21 -16 -37 -5 -23 14 -50 16 -50 4 0 -19 38
-42 68 -42 63 0 94 68 51 111 -15 15 -29 20 -49 16 -24 -5 -27 -3 -23 13 4 13
16 20 42 22 24 2 36 8 36 18 0 11 -14 16 -52 18 -28 2 -53 -1 -56 -5z"/>
<path d="M1242 1653 c-42 -17 -55 -123 -21 -167 49 -62 141 -6 113 69 -9 24
-51 37 -75 25 -14 -8 -19 -7 -19 2 1 30 17 40 54 33 42 -8 48 5 14 29 -23 16
-42 19 -66 9z"/>
<path d="M1379 1641 c-20 -16 -24 -28 -24 -79 0 -69 21 -102 65 -102 44 0 65
33 65 102 0 51 -4 63 -24 79 -13 10 -31 19 -41 19 -10 0 -28 -9 -41 -19z"/>
<path d="M3080 1642 c-34 -28 -40 -117 -10 -154 34 -44 101 -34 114 17 12 49
-35 96 -75 75 -18 -10 -20 -9 -17 12 3 20 8 23 46 20 46 -3 54 9 20 32 -29 21
-51 20 -78 -2z"/>
<path d="M3229 1641 c-20 -16 -24 -28 -24 -79 0 -70 21 -102 66 -102 48 0 78
70 59 140 -16 59 -58 76 -101 41z"/>
<path d="M2780 1591 c-53 -79 -52 -91 5 -91 38 0 45 -3 45 -20 0 -13 7 -20 20
-20 13 0 20 7 20 20 0 11 5 20 10 20 6 0 10 7 10 15 0 8 -4 15 -10 15 -6 0
-10 27 -10 60 0 57 -1 60 -25 60 -19 0 -34 -14 -65 -59z"/>
<path d="M2910 1631 c0 -10 -3 -33 -7 -51 l-6 -33 41 7 c34 5 43 3 51 -13 7
-13 6 -24 -4 -37 -12 -16 -17 -17 -34 -6 -24 14 -51 16 -51 3 0 -36 84 -55
114 -26 50 50 5 136 -59 111 -10 -3 -15 1 -15 14 0 15 8 19 42 22 23 2 43 9
46 16 3 9 -13 12 -57 12 -53 0 -61 -2 -61 -19z"/>
<path d="M11885 827 c-16 -14 -25 -29 -21 -35 10 -17 36 -15 42 3 8 20 33 19
41 -1 4 -10 -10 -32 -42 -64 -66 -67 -60 -85 25 -85 54 0 65 3 68 18 3 14 -4
17 -45 17 l-48 0 42 38 c50 45 60 72 36 100 -29 34 -66 37 -98 9z"/>
<path d="M12057 843 c-23 -6 -47 -54 -47 -93 0 -49 25 -98 54 -106 58 -14 96
48 83 133 -9 52 -44 78 -90 66z"/>
<path d="M12203 840 c-47 -19 -55 -138 -12 -181 26 -26 55 -24 84 6 21 20 25
34 25 80 0 46 -4 60 -25 80 -26 27 -37 29 -72 15z"/>
</g>
</svg>
